<mxfile host="app.diagrams.net" agent="Mozilla/5.0 (Windows NT 10.0; Win64; x64) AppleWebKit/537.36 (KHTML, like Gecko) Chrome/140.0.0.0 Safari/537.36" version="28.2.1">
  <diagram name="Page-1" id="O4WdVeyWn1ohguUK0klU">
    <mxGraphModel dx="1042" dy="561" grid="1" gridSize="10" guides="1" tooltips="1" connect="1" arrows="1" fold="1" page="1" pageScale="1" pageWidth="850" pageHeight="1100" math="0" shadow="0">
      <root>
        <mxCell id="0" />
        <mxCell id="1" parent="0" />
        <mxCell id="BwZgoz8gEKsHOz_upgab-8" value="" style="rounded=0;whiteSpace=wrap;html=1;fillColor=#f5f5f5;gradientColor=#b3b3b3;strokeColor=#666666;" vertex="1" parent="1">
          <mxGeometry x="120" y="30" width="600" height="290" as="geometry" />
        </mxCell>
        <mxCell id="BwZgoz8gEKsHOz_upgab-4" style="edgeStyle=orthogonalEdgeStyle;rounded=0;orthogonalLoop=1;jettySize=auto;html=1;entryX=0;entryY=0.5;entryDx=0;entryDy=0;" edge="1" parent="1" source="BwZgoz8gEKsHOz_upgab-1" target="BwZgoz8gEKsHOz_upgab-2">
          <mxGeometry relative="1" as="geometry" />
        </mxCell>
        <mxCell id="BwZgoz8gEKsHOz_upgab-1" value="&lt;b&gt;Frontend&lt;br&gt;Server&lt;/b&gt;" style="rounded=0;whiteSpace=wrap;html=1;fillColor=#dae8fc;gradientColor=#7ea6e0;strokeColor=#6c8ebf;" vertex="1" parent="1">
          <mxGeometry x="310" y="70" width="120" height="80" as="geometry" />
        </mxCell>
        <mxCell id="BwZgoz8gEKsHOz_upgab-2" value="&lt;b&gt;Backend&lt;br&gt;Server&lt;/b&gt;" style="rounded=0;whiteSpace=wrap;html=1;fillColor=#d5e8d4;gradientColor=#97d077;strokeColor=#82b366;" vertex="1" parent="1">
          <mxGeometry x="480" y="120" width="120" height="80" as="geometry" />
        </mxCell>
        <mxCell id="BwZgoz8gEKsHOz_upgab-3" value="" style="shape=cylinder3;whiteSpace=wrap;html=1;boundedLbl=1;backgroundOutline=1;size=15;fillColor=#e6d0de;gradientColor=#d5739d;strokeColor=#996185;" vertex="1" parent="1">
          <mxGeometry x="640" y="120" width="60" height="80" as="geometry" />
        </mxCell>
        <mxCell id="BwZgoz8gEKsHOz_upgab-5" style="edgeStyle=orthogonalEdgeStyle;rounded=0;orthogonalLoop=1;jettySize=auto;html=1;entryX=0;entryY=0.5;entryDx=0;entryDy=0;entryPerimeter=0;" edge="1" parent="1" source="BwZgoz8gEKsHOz_upgab-2" target="BwZgoz8gEKsHOz_upgab-3">
          <mxGeometry relative="1" as="geometry" />
        </mxCell>
        <mxCell id="BwZgoz8gEKsHOz_upgab-27" style="edgeStyle=orthogonalEdgeStyle;rounded=0;orthogonalLoop=1;jettySize=auto;html=1;" edge="1" parent="1" source="BwZgoz8gEKsHOz_upgab-6" target="BwZgoz8gEKsHOz_upgab-26">
          <mxGeometry relative="1" as="geometry" />
        </mxCell>
        <mxCell id="BwZgoz8gEKsHOz_upgab-6" value="" style="html=1;verticalLabelPosition=bottom;align=center;labelBackgroundColor=#ffffff;verticalAlign=top;strokeWidth=2;strokeColor=#0080F0;shadow=0;dashed=0;shape=mxgraph.ios7.icons.user;" vertex="1" parent="1">
          <mxGeometry x="10" y="125" width="70" height="70" as="geometry" />
        </mxCell>
        <mxCell id="BwZgoz8gEKsHOz_upgab-14" style="edgeStyle=orthogonalEdgeStyle;rounded=0;orthogonalLoop=1;jettySize=auto;html=1;entryX=0;entryY=0.5;entryDx=0;entryDy=0;" edge="1" parent="1" source="BwZgoz8gEKsHOz_upgab-10" target="BwZgoz8gEKsHOz_upgab-13">
          <mxGeometry relative="1" as="geometry" />
        </mxCell>
        <mxCell id="BwZgoz8gEKsHOz_upgab-15" style="edgeStyle=orthogonalEdgeStyle;rounded=0;orthogonalLoop=1;jettySize=auto;html=1;entryX=0;entryY=0.5;entryDx=0;entryDy=0;" edge="1" parent="1" source="BwZgoz8gEKsHOz_upgab-10" target="BwZgoz8gEKsHOz_upgab-11">
          <mxGeometry relative="1" as="geometry" />
        </mxCell>
        <mxCell id="BwZgoz8gEKsHOz_upgab-16" style="edgeStyle=orthogonalEdgeStyle;rounded=0;orthogonalLoop=1;jettySize=auto;html=1;entryX=0;entryY=0.5;entryDx=0;entryDy=0;" edge="1" parent="1" source="BwZgoz8gEKsHOz_upgab-10" target="BwZgoz8gEKsHOz_upgab-12">
          <mxGeometry relative="1" as="geometry" />
        </mxCell>
        <mxCell id="BwZgoz8gEKsHOz_upgab-10" value="" style="outlineConnect=0;dashed=0;verticalLabelPosition=bottom;verticalAlign=top;align=center;html=1;shape=mxgraph.aws3.application_load_balancer;fillColor=#F58534;gradientColor=none;" vertex="1" parent="1">
          <mxGeometry x="140" y="500" width="70" height="70" as="geometry" />
        </mxCell>
        <mxCell id="BwZgoz8gEKsHOz_upgab-11" value="" style="rounded=0;whiteSpace=wrap;html=1;" vertex="1" parent="1">
          <mxGeometry x="290" y="505" width="120" height="60" as="geometry" />
        </mxCell>
        <mxCell id="BwZgoz8gEKsHOz_upgab-12" value="" style="rounded=0;whiteSpace=wrap;html=1;" vertex="1" parent="1">
          <mxGeometry x="290" y="610" width="120" height="60" as="geometry" />
        </mxCell>
        <mxCell id="BwZgoz8gEKsHOz_upgab-13" value="" style="rounded=0;whiteSpace=wrap;html=1;" vertex="1" parent="1">
          <mxGeometry x="290" y="390" width="120" height="60" as="geometry" />
        </mxCell>
        <mxCell id="BwZgoz8gEKsHOz_upgab-21" style="edgeStyle=orthogonalEdgeStyle;rounded=0;orthogonalLoop=1;jettySize=auto;html=1;entryX=0;entryY=0.5;entryDx=0;entryDy=0;" edge="1" parent="1" source="BwZgoz8gEKsHOz_upgab-17" target="BwZgoz8gEKsHOz_upgab-18">
          <mxGeometry relative="1" as="geometry" />
        </mxCell>
        <mxCell id="BwZgoz8gEKsHOz_upgab-23" style="edgeStyle=orthogonalEdgeStyle;rounded=0;orthogonalLoop=1;jettySize=auto;html=1;entryX=0;entryY=0.5;entryDx=0;entryDy=0;" edge="1" parent="1" source="BwZgoz8gEKsHOz_upgab-17" target="BwZgoz8gEKsHOz_upgab-20">
          <mxGeometry relative="1" as="geometry" />
        </mxCell>
        <mxCell id="BwZgoz8gEKsHOz_upgab-17" value="" style="outlineConnect=0;dashed=0;verticalLabelPosition=bottom;verticalAlign=top;align=center;html=1;shape=mxgraph.aws3.application_load_balancer;fillColor=#F58534;gradientColor=none;" vertex="1" parent="1">
          <mxGeometry x="490" y="505" width="70" height="70" as="geometry" />
        </mxCell>
        <mxCell id="BwZgoz8gEKsHOz_upgab-18" value="" style="rounded=0;whiteSpace=wrap;html=1;" vertex="1" parent="1">
          <mxGeometry x="610" y="390" width="120" height="60" as="geometry" />
        </mxCell>
        <mxCell id="BwZgoz8gEKsHOz_upgab-19" value="" style="rounded=0;whiteSpace=wrap;html=1;" vertex="1" parent="1">
          <mxGeometry x="610" y="500" width="120" height="60" as="geometry" />
        </mxCell>
        <mxCell id="BwZgoz8gEKsHOz_upgab-20" value="" style="rounded=0;whiteSpace=wrap;html=1;" vertex="1" parent="1">
          <mxGeometry x="610" y="610" width="120" height="60" as="geometry" />
        </mxCell>
        <mxCell id="BwZgoz8gEKsHOz_upgab-22" style="edgeStyle=orthogonalEdgeStyle;rounded=0;orthogonalLoop=1;jettySize=auto;html=1;entryX=0.027;entryY=0.64;entryDx=0;entryDy=0;entryPerimeter=0;" edge="1" parent="1" source="BwZgoz8gEKsHOz_upgab-17" target="BwZgoz8gEKsHOz_upgab-19">
          <mxGeometry relative="1" as="geometry" />
        </mxCell>
        <mxCell id="BwZgoz8gEKsHOz_upgab-24" value="&lt;b&gt;Round Robin&lt;/b&gt;" style="text;html=1;align=center;verticalAlign=middle;resizable=0;points=[];autosize=1;strokeColor=none;fillColor=none;" vertex="1" parent="1">
          <mxGeometry x="125" y="580" width="100" height="30" as="geometry" />
        </mxCell>
        <mxCell id="BwZgoz8gEKsHOz_upgab-31" style="edgeStyle=orthogonalEdgeStyle;rounded=0;orthogonalLoop=1;jettySize=auto;html=1;entryX=0;entryY=0.5;entryDx=0;entryDy=0;" edge="1" parent="1" source="BwZgoz8gEKsHOz_upgab-25" target="BwZgoz8gEKsHOz_upgab-2">
          <mxGeometry relative="1" as="geometry" />
        </mxCell>
        <mxCell id="BwZgoz8gEKsHOz_upgab-25" value="&lt;b&gt;Frontend&lt;br&gt;Server&lt;/b&gt;" style="rounded=0;whiteSpace=wrap;html=1;fillColor=#dae8fc;gradientColor=#7ea6e0;strokeColor=#6c8ebf;" vertex="1" parent="1">
          <mxGeometry x="310" y="200" width="120" height="80" as="geometry" />
        </mxCell>
        <mxCell id="BwZgoz8gEKsHOz_upgab-28" style="edgeStyle=orthogonalEdgeStyle;rounded=0;orthogonalLoop=1;jettySize=auto;html=1;entryX=0;entryY=0.5;entryDx=0;entryDy=0;" edge="1" parent="1" source="BwZgoz8gEKsHOz_upgab-26" target="BwZgoz8gEKsHOz_upgab-1">
          <mxGeometry relative="1" as="geometry" />
        </mxCell>
        <mxCell id="BwZgoz8gEKsHOz_upgab-29" style="edgeStyle=orthogonalEdgeStyle;rounded=0;orthogonalLoop=1;jettySize=auto;html=1;entryX=0;entryY=0.5;entryDx=0;entryDy=0;" edge="1" parent="1" source="BwZgoz8gEKsHOz_upgab-26" target="BwZgoz8gEKsHOz_upgab-25">
          <mxGeometry relative="1" as="geometry" />
        </mxCell>
        <mxCell id="BwZgoz8gEKsHOz_upgab-26" value="" style="outlineConnect=0;dashed=0;verticalLabelPosition=bottom;verticalAlign=top;align=center;html=1;shape=mxgraph.aws3.application_load_balancer;fillColor=#F58534;gradientColor=none;" vertex="1" parent="1">
          <mxGeometry x="150" y="125" width="69" height="72" as="geometry" />
        </mxCell>
        <mxCell id="BwZgoz8gEKsHOz_upgab-32" value="&lt;b&gt;LB&lt;/b&gt;" style="text;html=1;align=center;verticalAlign=middle;resizable=0;points=[];autosize=1;strokeColor=none;fillColor=none;" vertex="1" parent="1">
          <mxGeometry x="164.5" y="200" width="40" height="30" as="geometry" />
        </mxCell>
      </root>
    </mxGraphModel>
  </diagram>
</mxfile>
